<svg xmlns="http://www.w3.org/2000/svg" viewBox="00 169 45" width="169" height="45">
  <path
    d="M12.451 11.9c-2.1 0-4.201 1-5.701 2.5v-2.099H.15V33.1h6.7V22.4c0-2.3.7-5 3.5-5 2.9 0 3 3 3 5.1v10.6h6.601V22.5c0-2.4.499-5.1 3.399-5.1 2.8 0 2.9 3.2 2.9 5.2v10.5h6.701V19.9c0-4.3-3.101-8-7.601-8-2.6 0-5.5 1.1-7.2 3.2-1.2-2.1-3.399-3.2-5.699-3.2zm90.1.1c-2.6 0-6.4 1-7.4 2.7v-2h-7v32h7V30.9c1 1.7 4.8 2.7 7.4 2.7 5.6 0 10.1-4.799 10.1-10.799 0-6-4.5-10.8-10.1-10.8zm26.54.112c-2.274-.058-4.023.82-5.241 2.69v-2.5h-6.6V33.1h6.6v-10c0-3.8 3.401-5.7 6.601-4.1h.299v-6.699a10.093 10.093 0 00-1.658-.19zm5.86.19V33.1h6.6V12.301zm10.2 0l7.3 10-7.9 10.798h8.1l4-7 4.099 7h8.1l-7.899-10.799 7.299-10h-7.7l-3.9 6.299-3.8-6.299zm-107 1.298v19.5h6.599V13.6zm25.3 1.5c-2.4 0-4.501 1.101-6.201 2.701V15.6h-6.6v17.5h6.6V26c0-2.9 2-5.3 4.6-5.3 2.5 0 3.3 1.6 3.3 4.4v8h6.6V25c0-6.5-2.399-9.9-8.299-9.9zm38.1 2.5c2.9 0 5.199 2.301 5.199 5.201 0 2.9-2.3 5.2-5.2 5.2-2.9 0-5.099-2.3-5.099-5.2 0-2.9 2.3-5.201 5.1-5.201zm-24.701.201V33.1h6.601V17.801z"
    fill="#255aa6" />
  <path d="M41.45 10.1c-2.3 0-4.2-1.9-4.2-4.3 0-2.3 1.9-4.2 4.2-4.2 2.4 0 4.3 1.9 4.3 4.2 0 2.4-1.9 4.3-4.3 4.3z"
    fill="#efdc4b" />
  <path d="M80.25 14.3c-2.3 0-4.2-1.9-4.2-4.3 0-2.3 1.9-4.2 4.2-4.2 2.4 0 4.3 1.9 4.3 4.2-.1 2.4-1.9 4.3-4.3 4.3z"
    fill="#f05a28" />
  <path d="M138.25 8.8c-2.3 0-4.2-1.9-4.2-4.3 0-2.3 1.9-4.2 4.2-4.2 2.4 0 4.3 1.9 4.3 4.2 0 2.5-1.9 4.3-4.3 4.3z"
    fill="#02ae7c" />
</svg>